<svg height="512pt" viewBox="0 -76 512 512" width="512pt" xmlns="http://www.w3.org/2000/svg"><path d="m150 300h45c24.8125 0 45-20.1875 45-45v-15h24.269531l30-60h60l30-60h127.730469v-90h-30v-30h-30v30c-33.84375 0-280.566406 0-317 0-31.125 0-57.875 19.058594-69.210938 46.117188l-46.046874-15.347657-9.484376 28.460938 49.761719 16.585937c.121094 11.183594 2.695313 21.785156 7.21875 31.292969l-37.238281 18.621094v9.269531c0 26.726562-6.710938 54.910156-20.511719 86.164062-6.296875 14.261719-9.488281 30.414063-9.488281 48.007813v60.828125h150zm60-45c0 8.269531-6.730469 15-15 15h-45v-15c0-8.269531 6.730469-15 15-15h45zm125.730469-105h-35.730469v-30h50.730469zm146.269531-60h-182v-30h182zm-212-30v90h-30v-90zm-120 60h60v30h-60zm60-30h-60v-30h60zm-90-27.421875v84.839844c-17.460938-6.191407-30-22.863281-30-42.417969s12.539062-36.226562 30-42.421875zm0 192.421875v75h-90.011719v-30.828125c0-13.394531 2.34375-25.472656 6.945313-35.890625 13.960937-31.609375 21.46875-60.800781 22.835937-88.894531l25.910157-12.957031c13.195312 11.550781 30.449218 18.570312 49.320312 18.570312h125.730469l-15 30h-80.730469c-24.8125 0-45 20.1875-45 45zm0 0"/></svg>